<svg xmlns="http://www.w3.org/2000/svg" version="1.1" xmlns:xlink="http://www.w3.org/1999/xlink" xmlns:svgjs="http://svgjs.dev/svgjs" width="2000" height="1500" viewBox="0 0 2000 1500"><rect width="2000" height="1500" fill="#ff4a3f"></rect><g transform="matrix(0.2302025782688766,0,0,0.2302025782688766,769.645149664077,248.78048780487802)"><svg viewBox="0 0 151 328" data-background-color="#ff4a3f" preserveAspectRatio="xMidYMid meet" height="4344" width="2000" xmlns="http://www.w3.org/2000/svg" xmlns:xlink="http://www.w3.org/1999/xlink"><g id="tight-bounds" transform="matrix(1,0,0,1,0.06124262811752601,0.39999999999997726)"><svg viewBox="0 0 150.88881520778074 327.2" height="327.2" width="150.88881520778074"><g><svg viewBox="0 0 313.84873563218395 680.576" height="327.2" width="150.88881520778074"><g transform="matrix(1,0,0,1,0,353.376)"><svg viewBox="0 0 313.84873563218395 327.2" height="327.2" width="313.84873563218395"><g id="textblocktransform"><svg viewBox="0 0 313.84873563218395 327.2" height="327.2" width="313.84873563218395" id="textblock"><g><svg viewBox="0 0 313.84873563218395 327.2" height="327.2" width="313.84873563218395"><g transform="matrix(1,0,0,1,0,0)"><svg width="313.84873563218395" viewBox="-0.38749999999999996 -34.4 33.377500000000005 34.8" height="327.2" data-palette-color="#ffffff"><path d="M27-30.8L22.65-34.3 22.15-33.7 26.5-30.2Q26.6-30.15 26.73-30.13 26.85-30.1 26.95-30.15L26.95-30.15 32.8-33.65 32.4-34.35 26.55-30.85Q26.45-30.8 26.78-30.78 27.1-30.75 27-30.8L27-30.8ZM6.35-30.85L0.2-34.35-0.2-33.65 5.95-30.15Q6.05-30.1 6.18-30.13 6.3-30.15 6.4-30.2L6.4-30.2 11.05-33.7 10.55-34.3 5.9-30.8Q5.85-30.75 6.15-30.78 6.45-30.8 6.35-30.85L6.35-30.85ZM11.25-16.7L6.55-30.65 5.75-30.35 10.45-16.4Q10.45-16.4 10.45-16.4 10.45-16.4 10.45-16.4L10.45-16.4Q11.45-13.6 12.55-10.35 13.65-7.1 14.45-4.4L14.45-4.4Q14.5-4.25 14.6-4.17 14.7-4.1 14.85-4.1L14.85-4.1 18.05-4.1Q18.2-4.1 18.3-4.17 18.4-4.25 18.45-4.4L18.45-4.4Q19.25-7.1 20.35-10.35 21.45-13.6 22.45-16.4L22.45-16.4Q22.45-16.4 22.45-16.4 22.45-16.4 22.45-16.4L22.45-16.4 27.15-30.35 26.35-30.65 21.65-16.7Q21.65-16.7 21.65-16.7 21.65-16.7 21.65-16.7L21.65-16.7Q20.65-13.9 19.55-10.6 18.45-7.3 17.65-4.6L17.65-4.6Q17.6-4.5 17.9-4.7 18.2-4.9 18.05-4.9L18.05-4.9 14.85-4.9Q14.7-4.9 15-4.7 15.3-4.5 15.25-4.6L15.25-4.6Q14.45-7.3 13.35-10.6 12.25-13.9 11.25-16.7L11.25-16.7Q11.25-16.7 11.25-16.7 11.25-16.7 11.25-16.7L11.25-16.7ZM14.5-4.7L12.2-0.2 12.9 0.2 15.2-4.3Q15.2-4.35 15.23-4.35 15.25-4.35 15.25-4.4L15.25-4.4 17-10.35Q17.1-10.65 16.63-10.65 16.15-10.65 16.2-10.35L16.2-10.35 17.65-4.4Q17.65-4.4 17.68-4.38 17.7-4.35 17.7-4.35L17.7-4.35 19.85 0.15 20.55-0.15 18.4-4.65Q18.4-4.7 18.43-4.63 18.45-4.55 18.45-4.6L18.45-4.6 17-10.55Q16.95-10.85 16.63-10.85 16.3-10.85 16.2-10.55L16.2-10.55 14.45-4.6Q14.45-4.6 14.48-4.65 14.5-4.7 14.5-4.7L14.5-4.7ZM12.55 0.4L12.55 0.4 20.2 0.4Q20.35 0.4 20.48 0.3 20.6 0.2 20.6 0L20.6 0Q20.6-0.75 20.83-1.75 21.05-2.75 21.6-4.48 22.15-6.2 23.18-9.08 24.2-11.95 25.8-16.4L25.8-16.4Q27.5-21.15 28.65-24.2 29.8-27.25 30.55-29.08 31.3-30.9 31.85-31.95 32.4-33 32.9-33.75L32.9-33.75Q33.05-34 32.95-34.2 32.85-34.4 32.6-34.4L32.6-34.4 22.4-34.4Q22.2-34.4 22.08-34.23 21.95-34.05 22.05-33.85L22.05-33.85Q22.45-32.95 22.5-31.88 22.55-30.8 22.15-29.03 21.75-27.25 20.83-24.3 19.9-21.35 18.3-16.7L18.3-16.7 16.2-10.6 17-10.6 14.9-16.7Q13.3-21.35 12.35-24.3 11.4-27.25 11.03-29.03 10.65-30.8 10.73-31.88 10.8-32.95 11.15-33.85L11.15-33.85Q11.25-34.05 11.15-34.23 11.05-34.4 10.8-34.4L10.8-34.4 0-34.4Q-0.25-34.4-0.35-34.2-0.45-34-0.3-33.75L-0.3-33.75Q0.25-33 0.78-31.95 1.3-30.9 2.05-29.08 2.8-27.25 3.95-24.2 5.1-21.15 6.8-16.4L6.8-16.4Q8.4-11.95 9.4-9.08 10.4-6.2 10.98-4.45 11.55-2.7 11.8-1.7 12.05-0.7 12.15 0.05L12.15 0.05Q12.2 0.2 12.3 0.3 12.4 0.4 12.55 0.4ZM20.2-0.4L12.55-0.4 12.95-0.05Q12.85-0.8 12.6-1.83 12.35-2.85 11.78-4.63 11.2-6.4 10.2-9.3 9.2-12.2 7.6-16.7L7.6-16.7Q5.85-21.5 4.7-24.58 3.55-27.65 2.78-29.5 2-31.35 1.43-32.43 0.85-33.5 0.3-34.25L0.3-34.25 0-33.6 10.8-33.6 10.45-34.15Q10.05-33.2 9.93-32.13 9.8-31.05 10.18-29.23 10.55-27.4 11.48-24.35 12.4-21.3 14.1-16.4L14.1-16.4 16.2-10.3Q16.3-10.05 16.6-10.05 16.9-10.05 17-10.3L17-10.3 19.1-16.4Q20.75-21.3 21.7-24.35 22.65-27.4 23-29.23 23.35-31.05 23.25-32.13 23.15-33.2 22.75-34.15L22.75-34.15 22.4-33.6 32.6-33.6 32.3-34.25Q31.75-33.5 31.18-32.43 30.6-31.35 29.83-29.5 29.05-27.65 27.9-24.58 26.75-21.5 25-16.7L25-16.7Q23.4-12.2 22.38-9.28 21.35-6.35 20.8-4.58 20.25-2.8 20.03-1.78 19.8-0.75 19.8 0L19.8 0 20.2-0.4Z" opacity="1" transform="matrix(1,0,0,1,0,0)" fill="#ffffff" class="wordmark-text-0" data-fill-palette-color="primary" id="text-0"></path></svg></g></svg></g></svg></g></svg></g><g transform="matrix(1,0,0,1,62.00586165884158,0)"><svg viewBox="0 0 189.83701231450078 327.2" height="327.2" width="189.83701231450078"><g><svg xmlns="http://www.w3.org/2000/svg" xmlns:xlink="http://www.w3.org/1999/xlink" version="1.1" x="0" y="0" viewBox="21.679106830508616 1 56.85827385947762 98" enable-background="new 0 0 100 100" xml:space="preserve" height="327.2" width="189.83701231450078" class="icon-icon-0" data-fill-palette-color="accent" id="icon-0"><g fill="#ffffff" data-fill-palette-color="accent"><path fill-rule="evenodd" clip-rule="evenodd" d="M30.545 28.822C29.38 36.039 30.875 43.672 37.045 47.863 30.758 19.81 45.756 8.664 59.646 1 43.466 24.046 76.542 24.644 78.423 51.13 80.028 73.71 64.507 91.317 46.639 99 46.845 76.175 24.089 73.067 21.801 54.397 20.905 47.094 25.062 33.766 30.545 28.822" fill="#ffffff" data-fill-palette-color="accent"></path></g></svg></g></svg></g><g></g></svg></g><defs></defs></svg><rect width="150.88881520778074" height="327.2" fill="none" stroke="none" visibility="hidden"></rect></g></svg></g></svg>